<!DOCTYPE svg PUBLIC "-//W3C//DTD SVG 1.1//EN" "http://www.w3.org/Graphics/SVG/1.1/DTD/svg11.dtd">
<!-- Uploaded to: SVG Repo, www.svgrepo.com, Transformed by: SVG Repo Mixer Tools -->
<svg height="800px" width="800px" version="1.1" id="Layer_1" xmlns="http://www.w3.org/2000/svg" xmlns:xlink="http://www.w3.org/1999/xlink" viewBox="0 0 308.844 308.844" xml:space="preserve" fill="#000000">
<g id="SVGRepo_bgCarrier" stroke-width="0"/>
<g id="SVGRepo_tracerCarrier" stroke-linecap="round" stroke-linejoin="round"/>
<g id="SVGRepo_iconCarrier"> <g> <g> <g> <g> <path style="fill:#C5CBCF;" d="M308.844,158.996c0-22.355-27.759-38.546-65.675-47.954c1.977-6.421,3.694-12.703,4.967-18.706 c6.798-32.011,2.632-53.621-12.041-62.494c-14.667-8.873-35.688-2.49-60.777,18.456c-5.319,4.441-10.691,9.453-16.061,14.933 c-5.262-5.582-10.536-10.698-15.769-15.243c-24.68-21.427-45.562-28.219-60.41-19.628 c-14.841,8.588-19.422,30.113-13.241,62.247c1.239,6.44,2.946,13.194,4.973,20.122c-38.58,9.36-66.986,25.658-66.986,48.267 c0,22.355,27.759,38.546,65.678,47.954c-1.977,6.421-3.694,12.706-4.967,18.706c-6.798,32.007-2.636,53.618,12.038,62.494 c4.359,2.636,9.187,3.865,14.375,3.865c18.082,0,40.516-14.958,62.463-37.418c21.76,23.15,44.169,38.628,62.364,38.628 c4.948,0,9.589-1.147,13.818-3.592c19.548-11.312,19.419-44.153,8.189-82.353C280.404,197.925,308.844,181.62,308.844,158.996z M185.712,60.8c14.29-11.93,27.287-18.513,35.951-18.513c2.357,0,4.394,0.488,6.051,1.489 c7.729,4.676,9.475,21.985,4.549,45.176c-1.267,5.965-2.984,12.225-5.002,18.652c-11.651-2.183-23.942-3.792-36.471-4.812 c-6.719-9.804-13.669-18.988-20.714-27.379C175.309,70.022,180.542,65.115,185.712,60.8z M102.488,176.688 c1.986,3.694,4.01,7.39,6.133,11.075c1.955,3.393,3.969,6.77,6.028,10.118c-6.988-0.795-13.609-1.774-19.872-2.895 C97.074,188.988,99.665,182.875,102.488,176.688z M95.873,122.804c6.012-1.055,12.358-1.97,19.026-2.724 c-1.929,3.025-3.839,6.079-5.712,9.19c-2.195,3.643-4.289,7.299-6.345,10.954C100.289,134.334,97.958,128.518,95.873,122.804z M111.386,158.54c3.64-6.944,7.511-13.916,11.699-20.866c4.02-6.675,8.195-13.093,12.443-19.317 c7.305-0.405,14.911-0.624,22.808-0.624c8.087,0,15.861,0.234,23.321,0.659c4.223,6.437,8.363,13.077,12.339,19.976 c4.137,7.181,7.894,14.198,11.319,21.034c-3.646,6.96-7.53,13.951-11.724,20.92c-4.096,6.801-8.227,13.238-12.364,19.314 c-7.327,0.409-14.962,0.63-22.891,0.63c-8.113,0-15.906-0.234-23.391-0.662c-4.112-6.282-8.211-12.928-12.266-19.97 C118.628,172.598,114.893,165.553,111.386,158.54z M207.488,188.719c2.208-3.668,4.318-7.346,6.386-11.027 c2.61,6.022,4.939,11.86,6.988,17.48c-6.031,1.058-12.396,1.98-19.086,2.737C203.721,194.868,205.631,191.805,207.488,188.719z M214.187,141.294c-1.993-3.725-4.036-7.422-6.136-11.065c-1.974-3.428-3.991-6.792-6.035-10.118 c6.988,0.795,13.612,1.774,19.875,2.899C219.598,129,217.01,135.111,214.187,141.294z M159.027,87.581 c3.697,4.467,7.365,9.155,10.989,14.065c-3.896-0.114-7.796-0.184-11.68-0.184c-3.564,0-7.14,0.063-10.717,0.158 C151.386,96.711,155.194,92.035,159.027,87.581z M91.198,42.449c7.812-4.524,23.781,2.309,41.663,17.838 c5.087,4.416,10.222,9.424,15.354,14.911c-7.346,8.414-14.607,17.651-21.642,27.538c-12.294,0.979-24.379,2.515-35.856,4.615 c-2.04-6.852-3.725-13.498-4.942-19.821C81.302,64.247,83.38,46.973,91.198,42.449z M78.685,191.592 c-34.893-8.563-54.626-21.889-54.626-32.597c0-10.821,20.15-24.319,55.734-32.869c3.738,10.482,8.284,21.3,13.463,32.239 C87.65,169.633,82.718,180.793,78.685,191.592z M88.958,274.218c-7.729-4.676-9.472-21.988-4.549-45.179 c1.267-5.965,2.984-12.228,5.002-18.652c11.673,2.186,23.99,3.798,36.541,4.818c6.63,9.617,13.596,18.81,20.727,27.297 C120.633,269.251,98.309,279.869,88.958,274.218z M157.645,230.521c-3.659-4.416-7.359-9.136-11.078-14.179 c3.928,0.114,7.853,0.187,11.765,0.187c3.595,0,7.2-0.063,10.809-0.162C165.28,221.411,161.44,226.121,157.645,230.521z M225.474,275.542c-9.459,5.461-31.573-5.588-57.096-32.834c7.438-8.512,14.721-17.759,21.655-27.449 c12.326-0.979,24.443-2.522,35.948-4.625C236.416,245.847,234.832,270.128,225.474,275.542z M236.78,191.887 c-3.786-10.618-8.3-21.471-13.371-32.242c5.61-11.274,10.542-22.441,14.578-33.246c34.893,8.563,54.626,21.889,54.626,32.6 C292.613,169.826,272.424,183.337,236.78,191.887z"/> </g> <g> <ellipse style="fill:#EAEEEF;" cx="158.216" cy="160.58" rx="24.886" ry="24.943"/> </g> </g> <g> <g> <path style="fill:#C7C8C9;" d="M301.02,149.866c0-22.355-27.759-38.546-65.675-47.954c1.977-6.421,3.694-12.703,4.967-18.706 c6.798-32.011,2.632-53.618-12.041-62.491c-14.667-8.873-35.688-2.49-60.777,18.456c-5.319,4.441-10.691,9.453-16.061,14.933 c-5.262-5.582-10.536-10.698-15.769-15.243c-24.68-21.427-45.562-28.219-60.41-19.628C60.413,27.821,55.832,49.346,62.013,81.48 c1.239,6.44,2.946,13.194,4.973,20.122C28.406,110.959,0,127.258,0,149.866c0,22.355,27.759,38.546,65.678,47.954 c-1.977,6.421-3.694,12.706-4.967,18.706c-6.798,32.007-2.636,53.618,12.038,62.494c4.359,2.636,9.187,3.865,14.375,3.865 c18.082,0,40.516-14.958,62.463-37.418c21.76,23.15,44.169,38.628,62.364,38.628c4.948,0,9.589-1.147,13.818-3.592 c19.552-11.312,19.419-44.153,8.189-82.353C272.576,188.795,301.02,172.491,301.02,149.866z M177.888,51.668 c14.29-11.93,27.287-18.513,35.951-18.513c2.357,0,4.394,0.485,6.051,1.486c7.729,4.676,9.475,21.985,4.549,45.176 c-1.267,5.965-2.984,12.228-5.002,18.652c-11.651-2.183-23.942-3.792-36.471-4.812c-6.719-9.804-13.669-18.988-20.714-27.379 C167.481,60.892,172.715,55.985,177.888,51.668z M94.663,167.558c1.986,3.694,4.01,7.39,6.133,11.075 c1.955,3.393,3.969,6.77,6.028,10.118c-6.988-0.795-13.609-1.774-19.872-2.895C89.25,179.859,91.841,173.745,94.663,167.558z M88.046,113.674c6.012-1.055,12.358-1.97,19.026-2.724c-1.929,3.025-3.839,6.079-5.712,9.19 c-2.195,3.643-4.289,7.299-6.345,10.954C92.465,125.205,90.133,119.389,88.046,113.674z M103.562,149.41 c3.64-6.944,7.511-13.916,11.699-20.866c4.02-6.675,8.195-13.093,12.443-19.32c7.305-0.405,14.908-0.627,22.808-0.627 c8.087,0,15.861,0.234,23.321,0.659c4.223,6.437,8.363,13.077,12.339,19.976c4.137,7.181,7.894,14.198,11.319,21.034 c-3.646,6.96-7.53,13.951-11.724,20.92c-4.096,6.801-8.227,13.238-12.364,19.314c-7.33,0.409-14.962,0.63-22.891,0.63 c-8.113,0-15.909-0.234-23.391-0.662c-4.112-6.282-8.211-12.928-12.266-19.97C110.803,163.469,107.065,156.423,103.562,149.41z M199.66,179.59c2.208-3.668,4.318-7.346,6.386-11.027c2.61,6.022,4.939,11.86,6.988,17.48 c-6.031,1.058-12.396,1.98-19.086,2.734C195.897,185.738,197.807,182.672,199.66,179.59z M206.363,132.165 c-1.993-3.725-4.036-7.422-6.136-11.065c-1.974-3.428-3.991-6.792-6.031-10.118c6.988,0.795,13.609,1.774,19.875,2.899 C211.774,119.87,209.182,125.981,206.363,132.165z M151.199,78.448c3.697,4.467,7.365,9.155,10.989,14.065 c-3.9-0.114-7.796-0.184-11.68-0.184c-3.564,0-7.14,0.063-10.717,0.158C143.558,87.581,147.369,82.905,151.199,78.448z M83.373,33.32c7.812-4.524,23.781,2.309,41.663,17.838c5.087,4.416,10.222,9.424,15.354,14.911 c-7.346,8.414-14.607,17.651-21.642,27.538c-12.294,0.979-24.379,2.515-35.856,4.615c-2.04-6.849-3.725-13.498-4.942-19.821 C73.477,55.117,75.552,37.843,83.373,33.32z M70.857,182.463c-34.89-8.563-54.626-21.889-54.626-32.597 c0-10.821,20.15-24.319,55.734-32.869c3.738,10.482,8.284,21.3,13.463,32.239C79.822,160.504,74.893,171.664,70.857,182.463z M81.134,265.088c-7.729-4.676-9.472-21.988-4.549-45.179c1.267-5.965,2.984-12.225,5.002-18.652 c11.673,2.186,23.99,3.798,36.541,4.818c6.63,9.617,13.596,18.81,20.727,27.297C112.808,260.121,90.485,270.74,81.134,265.088z M149.821,221.392c-3.659-4.416-7.359-9.136-11.078-14.179c3.928,0.114,7.853,0.187,11.765,0.187 c3.595,0,7.2-0.063,10.809-0.162C157.452,212.281,153.613,216.992,149.821,221.392z M217.65,266.413 c-9.459,5.461-31.573-5.588-57.096-32.834c7.438-8.512,14.721-17.759,21.655-27.452c12.326-0.979,24.443-2.518,35.948-4.625 C228.588,236.718,227.008,260.999,217.65,266.413z M228.953,182.757c-3.786-10.618-8.3-21.471-13.371-32.242 c5.61-11.274,10.542-22.441,14.578-33.246c34.893,8.563,54.625,21.893,54.625,32.597 C284.788,160.697,264.6,174.208,228.953,182.757z"/> </g> <g> <ellipse style="fill:#C7C8C9;" cx="150.388" cy="151.45" rx="24.886" ry="24.943"/> </g> </g> </g> </g> </g>
</svg>